<?xml version="1.0" encoding="UTF-8"?>
<svg xmlns="http://www.w3.org/2000/svg" xmlns:xlink="http://www.w3.org/1999/xlink" id="Layer_1" data-name="Layer 1" viewBox="0 0 213 48">
  <defs>
    <style>
      .cls-1 {
        clip-path: url(#clippath);
      }

      .cls-2 {
        fill: none;
      }

      .cls-2, .cls-3 {
        stroke-width: 0px;
      }

      .cls-3 {
        fill: #df231d;
      }
    </style>
    <clipPath id="clippath">
      <rect class="cls-2" y="0" width="212.13" height="48"></rect>
    </clipPath>
  </defs>
  <g class="cls-1">
    <g>
      <path class="cls-3" d="M150.73,4.84c0,2.68-2.19,4.84-4.89,4.84s-4.89-2.17-4.89-4.84S143.13,0,145.84,0s4.89,2.17,4.89,4.84Z"></path>
      <path class="cls-3" d="M170.01,4.84c0,2.68-2.19,4.84-4.89,4.84s-4.89-2.17-4.89-4.84S162.42,0,165.12,0s4.89,2.17,4.89,4.84Z"></path>
      <path class="cls-3" d="M9.58,24.59h15.2v-7.16h-15.2v-5.7h17.25v-7.4H0v33.85h27.46v-7.4H9.58v-6.19Z"></path>
      <path class="cls-3" d="M50.65,14.46c-2.36-1.95-5.69-2.93-10-2.93-2.09,0-4.18.26-6.28.8-2.1.53-3.9,1.28-5.4,2.25l3.13,6.24c.91-.71,2.02-1.26,3.33-1.67,1.3-.4,2.59-.6,3.86-.6,1.95,0,3.38.4,4.28,1.19.81.72,1.24,1.71,1.31,2.98h-5.25c-2.74,0-4.97.31-6.7.94-1.73.63-3,1.53-3.83,2.71-.83,1.18-1.24,2.58-1.24,4.18,0,1.51.38,2.88,1.15,4.11.77,1.22,1.88,2.19,3.34,2.9,1.47.71,3.26,1.06,5.38,1.06,2.32,0,4.18-.46,5.6-1.38.96-.62,1.69-1.46,2.22-2.49v3.44h8.65v-14.56c0-4.16-1.18-7.21-3.54-9.16M43.07,32.06c-.83.5-1.75.75-2.76.75-1.07,0-1.92-.24-2.54-.72-.62-.48-.93-1.12-.93-1.93s.3-1.45.9-1.93c.6-.48,1.66-.72,3.15-.72h4.01v2.27c-.39,1.03-1,1.8-1.83,2.3"></path>
      <path class="cls-3" d="M135.11,20.75c-.21-.09-.45-.15-.67-.23,1.37-.72,2.48-1.64,3.29-2.77.93-1.31,1.39-2.83,1.39-4.57,0-2.64-1.11-4.78-3.33-6.41-2.21-1.63-5.57-2.44-10.06-2.44h-17.5v7.64h-8.75l-6.54,16.02-6.5-16.02h-9.53l.46,1.07c-.97-.39-2.05-.71-3.26-.94-1.9-.37-3.79-.56-5.64-.56-2.77,0-5.12.38-7.04,1.14-1.92.76-3.38,1.79-4.37,3.1-1,1.31-1.49,2.79-1.49,4.47,0,1.48.27,2.71.83,3.67.55.97,1.29,1.73,2.22,2.3.93.57,1.95.99,3.08,1.26,1.12.28,2.24.49,3.34.65,1.1.16,2.13.31,3.05.43.93.13,1.68.31,2.25.55.57.24.86.62.86,1.14,0,.55-.3.99-.9,1.31-.6.33-1.69.48-3.25.48s-3.22-.22-4.89-.65c-1.66-.43-3.11-1.02-4.35-1.76l-2.79,6.29c1.3.77,3.02,1.42,5.15,1.93,2.13.52,4.32.77,6.57.77,2.87,0,5.27-.39,7.21-1.16,1.94-.77,3.4-1.8,4.4-3.1,1-1.29,1.49-2.74,1.49-4.35,0-1.48-.28-2.7-.83-3.65-.55-.95-1.29-1.71-2.22-2.27-.93-.57-1.95-.99-3.08-1.28-1.12-.29-2.24-.51-3.34-.65-1.11-.14-2.13-.29-3.05-.43-.93-.14-1.67-.35-2.22-.63-.55-.28-.83-.67-.83-1.19s.32-.95.95-1.31c.63-.35,1.73-.53,3.3-.53,1.17,0,2.41.14,3.71.41,1.3.28,2.61.78,3.91,1.53l2.15-4.82,9.98,23.34c-.36.67-.77,1.19-1.23,1.55-.58.45-1.38.68-2.39.68-.72,0-1.44-.14-2.18-.41-.74-.28-1.38-.65-1.93-1.14l-3.22,6.43c.88.71,2.03,1.28,3.45,1.71s2.82.65,4.23.65c1.76,0,3.36-.26,4.81-.77,1.45-.51,2.77-1.41,3.96-2.68,1.19-1.28,2.24-3.04,3.15-5.29l11.33-27.05v25.98h18.47c4.59,0,8.09-.82,10.48-2.44,2.39-1.63,3.59-3.91,3.59-6.84,0-1.97-.49-3.64-1.49-5.01s-2.39-2.42-4.18-3.15M124.46,11.24c1.63,0,2.85.26,3.66.8s1.22,1.34,1.22,2.44-.41,1.92-1.22,2.47c-.81.55-2.04.82-3.66.82h-6.64v-6.53h6.64ZM129.71,30.42c-.86.57-2.13.85-3.79.85h-8.11v-6.87h8.11c1.66,0,2.93.28,3.79.85.86.57,1.29,1.43,1.29,2.59s-.43,2.02-1.29,2.59"></path>
      <path class="cls-3" d="M193.36,11.97l-6.54,16.02-6.5-16.02h-9.53l11.35,26.55c-.36.67-.77,1.19-1.23,1.55-.58.45-1.38.68-2.39.68-.72,0-1.44-.14-2.18-.41-.73-.28-1.38-.65-1.93-1.14l-3.22,6.43c.88.71,2.03,1.28,3.45,1.71,1.41.43,2.82.65,4.23.65,1.76,0,3.36-.26,4.82-.77,1.45-.52,2.77-1.41,3.96-2.68,1.19-1.28,2.24-3.04,3.15-5.29l11.44-27.28h-8.86Z"></path>
      <path class="cls-3" d="M160.97,11.97v12.59c0,2.98-2.45,5.4-5.46,5.4s-5.46-2.42-5.46-5.4v-12.59h-8.43v12.59c0,7.58,6.23,13.75,13.89,13.75s13.9-6.17,13.9-13.75v-12.59h-8.44Z"></path>
    </g>
  </g>
</svg>
